G04 #@! TF.GenerationSoftware,KiCad,Pcbnew,(5.1.10)-1*
G04 #@! TF.CreationDate,2022-08-02T17:39:55+02:00*
G04 #@! TF.ProjectId,pcb_resistive_sole,7063625f-7265-4736-9973-746976655f73,rev?*
G04 #@! TF.SameCoordinates,Original*
G04 #@! TF.FileFunction,Paste,Top*
G04 #@! TF.FilePolarity,Positive*
%FSLAX46Y46*%
G04 Gerber Fmt 4.6, Leading zero omitted, Abs format (unit mm)*
G04 Created by KiCad (PCBNEW (5.1.10)-1) date 2022-08-02 17:39:55*
%MOMM*%
%LPD*%
G01*
G04 APERTURE LIST*
G04 APERTURE END LIST*
G36*
G01*
X133845000Y-96009999D02*
X133845000Y-96910001D01*
G75*
G02*
X133595001Y-97160000I-249999J0D01*
G01*
X132894999Y-97160000D01*
G75*
G02*
X132645000Y-96910001I0J249999D01*
G01*
X132645000Y-96009999D01*
G75*
G02*
X132894999Y-95760000I249999J0D01*
G01*
X133595001Y-95760000D01*
G75*
G02*
X133845000Y-96009999I0J-249999D01*
G01*
G37*
G36*
G01*
X135845000Y-96009999D02*
X135845000Y-96910001D01*
G75*
G02*
X135595001Y-97160000I-249999J0D01*
G01*
X134894999Y-97160000D01*
G75*
G02*
X134645000Y-96910001I0J249999D01*
G01*
X134645000Y-96009999D01*
G75*
G02*
X134894999Y-95760000I249999J0D01*
G01*
X135595001Y-95760000D01*
G75*
G02*
X135845000Y-96009999I0J-249999D01*
G01*
G37*
G36*
G01*
X133845000Y-93469999D02*
X133845000Y-94370001D01*
G75*
G02*
X133595001Y-94620000I-249999J0D01*
G01*
X132894999Y-94620000D01*
G75*
G02*
X132645000Y-94370001I0J249999D01*
G01*
X132645000Y-93469999D01*
G75*
G02*
X132894999Y-93220000I249999J0D01*
G01*
X133595001Y-93220000D01*
G75*
G02*
X133845000Y-93469999I0J-249999D01*
G01*
G37*
G36*
G01*
X135845000Y-93469999D02*
X135845000Y-94370001D01*
G75*
G02*
X135595001Y-94620000I-249999J0D01*
G01*
X134894999Y-94620000D01*
G75*
G02*
X134645000Y-94370001I0J249999D01*
G01*
X134645000Y-93469999D01*
G75*
G02*
X134894999Y-93220000I249999J0D01*
G01*
X135595001Y-93220000D01*
G75*
G02*
X135845000Y-93469999I0J-249999D01*
G01*
G37*
G36*
G01*
X133845000Y-90959999D02*
X133845000Y-91860001D01*
G75*
G02*
X133595001Y-92110000I-249999J0D01*
G01*
X132894999Y-92110000D01*
G75*
G02*
X132645000Y-91860001I0J249999D01*
G01*
X132645000Y-90959999D01*
G75*
G02*
X132894999Y-90710000I249999J0D01*
G01*
X133595001Y-90710000D01*
G75*
G02*
X133845000Y-90959999I0J-249999D01*
G01*
G37*
G36*
G01*
X135845000Y-90959999D02*
X135845000Y-91860001D01*
G75*
G02*
X135595001Y-92110000I-249999J0D01*
G01*
X134894999Y-92110000D01*
G75*
G02*
X134645000Y-91860001I0J249999D01*
G01*
X134645000Y-90959999D01*
G75*
G02*
X134894999Y-90710000I249999J0D01*
G01*
X135595001Y-90710000D01*
G75*
G02*
X135845000Y-90959999I0J-249999D01*
G01*
G37*
G36*
G01*
X133845000Y-88424999D02*
X133845000Y-89325001D01*
G75*
G02*
X133595001Y-89575000I-249999J0D01*
G01*
X132894999Y-89575000D01*
G75*
G02*
X132645000Y-89325001I0J249999D01*
G01*
X132645000Y-88424999D01*
G75*
G02*
X132894999Y-88175000I249999J0D01*
G01*
X133595001Y-88175000D01*
G75*
G02*
X133845000Y-88424999I0J-249999D01*
G01*
G37*
G36*
G01*
X135845000Y-88424999D02*
X135845000Y-89325001D01*
G75*
G02*
X135595001Y-89575000I-249999J0D01*
G01*
X134894999Y-89575000D01*
G75*
G02*
X134645000Y-89325001I0J249999D01*
G01*
X134645000Y-88424999D01*
G75*
G02*
X134894999Y-88175000I249999J0D01*
G01*
X135595001Y-88175000D01*
G75*
G02*
X135845000Y-88424999I0J-249999D01*
G01*
G37*
G36*
G01*
X133845000Y-85874999D02*
X133845000Y-86775001D01*
G75*
G02*
X133595001Y-87025000I-249999J0D01*
G01*
X132894999Y-87025000D01*
G75*
G02*
X132645000Y-86775001I0J249999D01*
G01*
X132645000Y-85874999D01*
G75*
G02*
X132894999Y-85625000I249999J0D01*
G01*
X133595001Y-85625000D01*
G75*
G02*
X133845000Y-85874999I0J-249999D01*
G01*
G37*
G36*
G01*
X135845000Y-85874999D02*
X135845000Y-86775001D01*
G75*
G02*
X135595001Y-87025000I-249999J0D01*
G01*
X134894999Y-87025000D01*
G75*
G02*
X134645000Y-86775001I0J249999D01*
G01*
X134645000Y-85874999D01*
G75*
G02*
X134894999Y-85625000I249999J0D01*
G01*
X135595001Y-85625000D01*
G75*
G02*
X135845000Y-85874999I0J-249999D01*
G01*
G37*
G36*
G01*
X133845000Y-83324999D02*
X133845000Y-84225001D01*
G75*
G02*
X133595001Y-84475000I-249999J0D01*
G01*
X132894999Y-84475000D01*
G75*
G02*
X132645000Y-84225001I0J249999D01*
G01*
X132645000Y-83324999D01*
G75*
G02*
X132894999Y-83075000I249999J0D01*
G01*
X133595001Y-83075000D01*
G75*
G02*
X133845000Y-83324999I0J-249999D01*
G01*
G37*
G36*
G01*
X135845000Y-83324999D02*
X135845000Y-84225001D01*
G75*
G02*
X135595001Y-84475000I-249999J0D01*
G01*
X134894999Y-84475000D01*
G75*
G02*
X134645000Y-84225001I0J249999D01*
G01*
X134645000Y-83324999D01*
G75*
G02*
X134894999Y-83075000I249999J0D01*
G01*
X135595001Y-83075000D01*
G75*
G02*
X135845000Y-83324999I0J-249999D01*
G01*
G37*
M02*
