G04 #@! TF.GenerationSoftware,KiCad,Pcbnew,(5.1.10)-1*
G04 #@! TF.CreationDate,2022-08-02T17:39:56+02:00*
G04 #@! TF.ProjectId,pcb_resistive_sole,7063625f-7265-4736-9973-746976655f73,rev?*
G04 #@! TF.SameCoordinates,Original*
G04 #@! TF.FileFunction,Soldermask,Bot*
G04 #@! TF.FilePolarity,Negative*
%FSLAX46Y46*%
G04 Gerber Fmt 4.6, Leading zero omitted, Abs format (unit mm)*
G04 Created by KiCad (PCBNEW (5.1.10)-1) date 2022-08-02 17:39:56*
%MOMM*%
%LPD*%
G01*
G04 APERTURE LIST*
%ADD10C,2.200000*%
%ADD11O,1.700000X1.700000*%
%ADD12R,0.800000X1.800000*%
%ADD13R,0.300000X1.600000*%
G04 APERTURE END LIST*
D10*
X130655000Y-80715000D03*
X130605000Y-109665000D03*
X159745000Y-109665000D03*
X159745000Y-80665000D03*
D11*
X156000000Y-83775000D03*
X156000000Y-86315000D03*
X156000000Y-88855000D03*
X156000000Y-91395000D03*
X156000000Y-93935000D03*
X156000000Y-96475000D03*
X156000000Y-99015000D03*
X156000000Y-101555000D03*
X156000000Y-104095000D03*
X156000000Y-106635000D03*
D12*
X151245000Y-108025000D03*
X139245000Y-108025000D03*
D13*
X149495000Y-109825000D03*
X149495000Y-106225000D03*
X148995000Y-109825000D03*
X148995000Y-106225000D03*
X148495000Y-109825000D03*
X148495000Y-106225000D03*
X147995000Y-109825000D03*
X147995000Y-106225000D03*
X147495000Y-109825000D03*
X147495000Y-106225000D03*
X146995000Y-109825000D03*
X146995000Y-106225000D03*
X146495000Y-109825000D03*
X146495000Y-106225000D03*
X145995000Y-109825000D03*
X145995000Y-106225000D03*
X145495000Y-109825000D03*
X145495000Y-106225000D03*
X144995000Y-109825000D03*
X144995000Y-106225000D03*
X144495000Y-109825000D03*
X144495000Y-106225000D03*
X143995000Y-109825000D03*
X143995000Y-106225000D03*
X143495000Y-109825000D03*
X143495000Y-106225000D03*
X142995000Y-109825000D03*
X142995000Y-106225000D03*
X142495000Y-109825000D03*
X142495000Y-106225000D03*
X141995000Y-109825000D03*
X141995000Y-106225000D03*
X141495000Y-109825000D03*
X141495000Y-106225000D03*
X140995000Y-109825000D03*
X140995000Y-106225000D03*
M02*
