G04 #@! TF.GenerationSoftware,KiCad,Pcbnew,(5.1.10)-1*
G04 #@! TF.CreationDate,2022-08-02T17:39:55+02:00*
G04 #@! TF.ProjectId,pcb_resistive_sole,7063625f-7265-4736-9973-746976655f73,rev?*
G04 #@! TF.SameCoordinates,Original*
G04 #@! TF.FileFunction,Copper,L2,Bot*
G04 #@! TF.FilePolarity,Positive*
%FSLAX46Y46*%
G04 Gerber Fmt 4.6, Leading zero omitted, Abs format (unit mm)*
G04 Created by KiCad (PCBNEW (5.1.10)-1) date 2022-08-02 17:39:55*
%MOMM*%
%LPD*%
G01*
G04 APERTURE LIST*
G04 #@! TA.AperFunction,ComponentPad*
%ADD10O,1.700000X1.700000*%
G04 #@! TD*
G04 #@! TA.AperFunction,SMDPad,CuDef*
%ADD11R,0.800000X1.800000*%
G04 #@! TD*
G04 #@! TA.AperFunction,SMDPad,CuDef*
%ADD12R,0.300000X1.600000*%
G04 #@! TD*
G04 #@! TA.AperFunction,ViaPad*
%ADD13C,0.600000*%
G04 #@! TD*
G04 #@! TA.AperFunction,Conductor*
%ADD14C,0.250000*%
G04 #@! TD*
G04 APERTURE END LIST*
D10*
X156000000Y-83775000D03*
X156000000Y-86315000D03*
X156000000Y-88855000D03*
X156000000Y-91395000D03*
X156000000Y-93935000D03*
X156000000Y-96475000D03*
X156000000Y-99015000D03*
X156000000Y-101555000D03*
X156000000Y-104095000D03*
X156000000Y-106635000D03*
D11*
X151245000Y-108025000D03*
X139245000Y-108025000D03*
D12*
X149495000Y-109825000D03*
X149495000Y-106225000D03*
X148995000Y-109825000D03*
X148995000Y-106225000D03*
X148495000Y-109825000D03*
X148495000Y-106225000D03*
X147995000Y-109825000D03*
X147995000Y-106225000D03*
X147495000Y-109825000D03*
X147495000Y-106225000D03*
X146995000Y-109825000D03*
X146995000Y-106225000D03*
X146495000Y-109825000D03*
X146495000Y-106225000D03*
X145995000Y-109825000D03*
X145995000Y-106225000D03*
X145495000Y-109825000D03*
X145495000Y-106225000D03*
X144995000Y-109825000D03*
X144995000Y-106225000D03*
X144495000Y-109825000D03*
X144495000Y-106225000D03*
X143995000Y-109825000D03*
X143995000Y-106225000D03*
X143495000Y-109825000D03*
X143495000Y-106225000D03*
X142995000Y-109825000D03*
X142995000Y-106225000D03*
X142495000Y-109825000D03*
X142495000Y-106225000D03*
X141995000Y-109825000D03*
X141995000Y-106225000D03*
X141495000Y-109825000D03*
X141495000Y-106225000D03*
X140995000Y-109825000D03*
X140995000Y-106225000D03*
D13*
X133250000Y-109950000D03*
D14*
X148995000Y-109825000D02*
X149495000Y-109825000D01*
X148995000Y-110860002D02*
X148645002Y-111210000D01*
X148995000Y-109825000D02*
X148995000Y-110860002D01*
X148645002Y-111210000D02*
X133600000Y-111210000D01*
X133250000Y-110860000D02*
X133250000Y-109950000D01*
X133600000Y-111210000D02*
X133250000Y-110860000D01*
X147995000Y-109825000D02*
X148495000Y-109825000D01*
X145995000Y-105175000D02*
X147170000Y-104000000D01*
X145995000Y-106225000D02*
X145995000Y-105175000D01*
X147170000Y-104000000D02*
X151060000Y-104000000D01*
X153695000Y-106635000D02*
X156000000Y-106635000D01*
X151060000Y-104000000D02*
X153695000Y-106635000D01*
X146983600Y-103549990D02*
X152719990Y-103549990D01*
X145495000Y-105038590D02*
X146983600Y-103549990D01*
X145495000Y-106225000D02*
X145495000Y-105038590D01*
X153265000Y-104095000D02*
X156000000Y-104095000D01*
X152719990Y-103549990D02*
X153265000Y-104095000D01*
X144995000Y-104902180D02*
X148347180Y-101550000D01*
X144995000Y-106225000D02*
X144995000Y-104902180D01*
X155995000Y-101550000D02*
X156000000Y-101555000D01*
X148347180Y-101550000D02*
X155995000Y-101550000D01*
X144495000Y-106225000D02*
X144495000Y-104135000D01*
X149615000Y-99015000D02*
X156000000Y-99015000D01*
X144495000Y-104135000D02*
X149615000Y-99015000D01*
X143995000Y-106225000D02*
X143995000Y-102435000D01*
X149955000Y-96475000D02*
X156000000Y-96475000D01*
X143995000Y-102435000D02*
X149955000Y-96475000D01*
X143495000Y-105665000D02*
X143519999Y-105640001D01*
X143519999Y-105640001D02*
X143519999Y-100140001D01*
X143495000Y-106225000D02*
X143495000Y-105665000D01*
X149725000Y-93935000D02*
X156000000Y-93935000D01*
X143519999Y-100140001D02*
X149725000Y-93935000D01*
X142995000Y-106225000D02*
X142995000Y-97255000D01*
X148855000Y-91395000D02*
X156000000Y-91395000D01*
X142995000Y-97255000D02*
X148855000Y-91395000D01*
X142495000Y-106225000D02*
X142495000Y-94505000D01*
X148145000Y-88855000D02*
X156000000Y-88855000D01*
X142495000Y-94505000D02*
X148145000Y-88855000D01*
X141995000Y-106225000D02*
X141995000Y-90795000D01*
X146475000Y-86315000D02*
X156000000Y-86315000D01*
X141995000Y-90795000D02*
X146475000Y-86315000D01*
X141495000Y-109825000D02*
X140995000Y-109825000D01*
X141495000Y-106225000D02*
X141495000Y-88155000D01*
X145875000Y-83775000D02*
X156000000Y-83775000D01*
X141495000Y-88155000D02*
X145875000Y-83775000D01*
M02*
